<svg width="189" height="31" viewBox="0 0 189 31" fill="none" xmlns="http://www.w3.org/2000/svg">
<g clip-path="url(#clip0_64_1043)">
<path d="M48.6429 7.91556H52.7648L47.5742 24.8819H42.9943L40.0937 13.4858L37.1421 24.8819H32.5622L27.3716 7.91556H31.6971L34.8522 20.7936L37.9563 7.86446H42.4854L45.5387 20.7425L48.6429 7.91556Z" fill="#24262B"/>
<path d="M55.309 22.6844C53.6805 21.0491 52.8154 18.9539 52.8154 16.3476C52.8154 13.7413 53.6296 11.6461 55.309 10.0108C56.9883 8.42659 59.0747 7.60894 61.5173 7.60894C63.96 7.60894 66.0464 8.42659 67.7257 10.0108C69.405 11.595 70.2192 13.6902 70.2192 16.3476C70.2192 18.9539 69.405 21.1002 67.6748 22.6844C65.9955 24.3197 63.9091 25.0863 61.4155 25.0863C59.0238 25.1374 56.9883 24.3197 55.309 22.6844ZM61.5173 21.458C62.7386 21.458 63.7564 20.998 64.6215 20.1293C65.4866 19.2605 65.8937 17.9829 65.8937 16.3476C65.8937 14.7123 65.4866 13.4858 64.6215 12.6171C63.7564 11.7483 62.7386 11.2884 61.5173 11.2884C60.296 11.2884 59.2782 11.7483 58.464 12.6171C57.6498 13.4858 57.1918 14.7634 57.1918 16.3987C57.1918 18.034 57.5989 19.3116 58.464 20.1804C59.2782 21.0491 60.296 21.458 61.5173 21.458Z" fill="#24262B"/>
<path d="M73.2728 22.6844C71.6444 21.0491 70.7793 18.9539 70.7793 16.3476C70.7793 13.7413 71.5935 11.6461 73.2728 10.0108C74.9521 8.42659 77.0386 7.60894 79.4812 7.60894C81.9238 7.60894 84.0102 8.42659 85.6896 10.0108C87.3689 11.595 88.1831 13.6902 88.1831 16.3476C88.1831 18.9539 87.3689 21.1002 85.6387 22.6844C83.9594 24.3197 81.8729 25.0863 79.3794 25.0863C76.9877 25.1374 74.9012 24.3197 73.2728 22.6844ZM79.4812 21.458C80.7025 21.458 81.7203 20.998 82.5854 20.1293C83.4505 19.2605 83.8576 17.9829 83.8576 16.3476C83.8576 14.7123 83.4505 13.4858 82.5854 12.6171C81.7203 11.7483 80.7025 11.2884 79.4812 11.2884C78.2599 11.2884 77.2421 11.7483 76.4279 12.6171C75.6137 13.4858 75.1557 14.7634 75.1557 16.3987C75.1557 18.034 75.5628 19.3116 76.4279 20.1804C77.2421 21.0491 78.2599 21.458 79.4812 21.458Z" fill="#24262B"/>
<path d="M91.5414 22.6844C90.0148 21.0491 89.2515 18.9539 89.2515 16.3987C89.2515 13.8436 90.0148 11.7483 91.4906 10.113C93.0172 8.4777 94.9001 7.66004 97.2409 7.66004C99.5818 7.66004 101.312 8.63101 102.533 10.5218V2.19198H106.808V24.8819H102.533V22.0201C101.261 24.0642 99.48 25.1374 97.19 25.1374C94.9001 25.1374 93.0172 24.3197 91.5414 22.6844ZM101.21 20.0271C102.126 19.1583 102.533 17.9318 102.533 16.3476C102.533 14.8145 102.075 13.588 101.21 12.6682C100.294 11.7994 99.2765 11.3395 98.0551 11.3395C96.8338 11.3395 95.8161 11.7994 94.9001 12.6682C94.035 13.5369 93.577 14.7634 93.577 16.2965C93.577 17.8296 94.035 19.0561 94.9001 19.976C95.8161 20.8958 96.8338 21.3046 98.0043 21.3046C99.2765 21.4069 100.294 20.9469 101.21 20.0271Z" fill="#24262B"/>
<path d="M113.474 7.91556V10.4707C114.543 8.63101 116.324 7.66004 118.716 7.66004C119.988 7.66004 121.159 7.96666 122.176 8.5288C123.194 9.14204 123.957 9.95969 124.517 11.084C125.128 10.0108 125.942 9.19314 126.96 8.5799C127.978 7.96666 129.148 7.66004 130.42 7.66004C132.456 7.66004 134.084 8.27328 135.305 9.55087C136.527 10.8285 137.137 12.6171 137.137 14.8656V24.8819H132.863V15.4789C132.863 14.1502 132.507 13.1281 131.845 12.4127C131.184 11.6972 130.268 11.3395 129.097 11.3395C127.927 11.3395 127.011 11.6972 126.349 12.4127C125.688 13.1281 125.331 14.1502 125.331 15.4789V24.8819H121.057V15.4789C121.057 14.1502 120.701 13.1281 120.039 12.4127C119.377 11.6972 118.461 11.3395 117.291 11.3395C116.121 11.3395 115.205 11.6972 114.543 12.4127C113.882 13.1281 113.525 14.1502 113.525 15.4789V24.8819H109.149V7.91556H113.474Z" fill="#24262B"/>
<path d="M141.412 22.6844C139.885 21.0491 139.122 18.9539 139.122 16.3987C139.122 13.8435 139.885 11.7483 141.361 10.113C142.888 8.4777 144.771 7.66004 147.112 7.66004C149.452 7.66004 151.183 8.63101 152.404 10.5218V7.86446H156.679V24.8308H152.404V21.969C151.132 24.0131 149.351 25.0863 147.061 25.0863C144.822 25.1374 142.939 24.3197 141.412 22.6844ZM151.081 20.0271C151.997 19.1583 152.404 17.9318 152.404 16.3476C152.404 14.8145 151.946 13.588 151.081 12.6682C150.165 11.7994 149.147 11.3395 147.926 11.3395C146.704 11.3395 145.687 11.7994 144.771 12.6682C143.906 13.5369 143.448 14.7634 143.448 16.2965C143.448 17.8296 143.906 19.0561 144.771 19.976C145.687 20.8958 146.704 21.3046 147.926 21.3046C149.147 21.3046 150.216 20.9469 151.081 20.0271Z" fill="#24262B"/>
<path d="M163.854 7.91556V10.8796C164.973 8.73321 166.653 7.60894 168.79 7.60894V12.0038H167.721C166.449 12.0038 165.482 12.3105 164.821 12.9748C164.159 13.6391 163.854 14.7123 163.854 16.2965V24.8308H159.528V7.91556H163.854Z" fill="#24262B"/>
<path d="M178.713 21.2535H180.749V24.8819H178.052C176.322 24.8819 174.999 24.473 174.032 23.7065C173.116 22.8888 172.607 21.6113 172.607 19.7715V11.4417H170.826V7.91556H172.607V3.67398H176.932V7.86446H180.698V11.3906H176.932V19.7204C176.932 20.2826 177.085 20.6914 177.339 20.8958C177.645 21.1513 178.103 21.2535 178.713 21.2535Z" fill="#24262B"/>
<path d="M12.5629 28.3569C18.9427 28.3569 24.1145 23.1632 24.1145 16.7564C24.1145 10.3497 18.9427 5.15598 12.5629 5.15598C6.18308 5.15598 1.01123 10.3497 1.01123 16.7564C1.01123 23.1632 6.18308 28.3569 12.5629 28.3569Z" stroke="#24262B" stroke-width="1.78862" stroke-miterlimit="10"/>
<path d="M5.33691 22.5311L12.4104 7.86446L20.0945 22.5311" fill="#24262B"/>
<path d="M13.1735 22.4289H11.6978V25.6484H13.1735V22.4289Z" fill="#24262B"/>
<path d="M187.619 22.4289C187.619 23.1444 187.364 23.7065 186.906 24.1664C186.448 24.6264 185.838 24.8819 185.176 24.8819C184.514 24.8819 183.904 24.6264 183.446 24.1664C182.988 23.7065 182.733 23.0933 182.733 22.4289C182.733 21.7135 182.988 21.1513 183.446 20.6914C183.904 20.2315 184.464 19.976 185.176 19.976C185.888 19.976 186.448 20.2315 186.906 20.6914C187.364 21.1513 187.619 21.7646 187.619 22.4289Z" fill="#24262B"/>
</g>
<defs>
<clipPath id="clip0_64_1043">
<rect width="187.778" height="30" fill="white" transform="translate(0.248047 0.734375)"/>
</clipPath>
</defs>
</svg>
